<svg viewBox="0 0 440 440" xmlns="http://www.w3.org/2000/svg">
  <path d="M220,355.030638128519C255.38235797556786,350.63975054173613,291.6993246853758,378.219330818099,324.0251772859753,363.178373290225C358.1780137671617,347.2873349526801,378.7468452600542,311.1835857133054,390.8790885473887,275.52198154337344C403.1299862738639,239.51160365192695,401.72629238823606,200.90246292632872,391.71653057172796,164.2059170484656C381.29570173247015,126.00236829323785,370.8297358025665,76.56884468953983,333.22528480971954,64.1587650477027C293.8817823480428,51.17477017350288,259.5810728134721,95.29600349114456,220,107.53667274489999C196.17083571644707,114.90597574391052,172.6110981531732,115.67576168548229,148.32048633922835,121.34161332914738C103.73629203521511,131.74099859427517,46.65780490820508,118.42423795009616,18.51508076129809,154.53358124544926C-8.819576365287705,189.60611057460224,7.333477431178938,242.34475210209683,21.046817277238965,284.64380769484933C34.76709467947672,326.96426231057757,53.4160259551059,376.7173001092555,95.35754701831021,391.5556188071761C137.19700519241505,406.3578290942117,175.95715177200162,360.4962771259091,220,355.030638128519" fill="#999999" />
</svg>